<svg width="102" height="103" viewBox="0 0 102 103" fill="none" xmlns="http://www.w3.org/2000/svg">
<path d="M98.7129 55.2665C103.588 59.2675 101.8 67.1177 95.6736 68.6124C91.2145 69.7003 88.7264 74.4848 90.3429 78.7806C92.5518 84.6509 87.1193 90.5894 81.1067 88.8038C76.7169 87.5002 72.1731 90.4013 71.4448 94.9223C70.4483 101.108 62.774 103.549 58.4773 98.9893C55.3416 95.6618 49.9867 95.8677 47.1079 99.42C43.1519 104.302 35.302 102.513 33.8507 96.3994C32.7948 91.9517 28.0577 89.4475 23.7915 91.0897C17.948 93.339 12.0919 87.812 13.8681 81.8078C15.167 77.4175 12.3289 72.8317 7.80851 72.1055C1.6144 71.1103 -0.710806 63.4033 3.82388 59.0681C7.14094 55.897 6.97122 50.5084 3.42482 47.596C-1.44724 43.595 0.341376 35.7486 6.46572 34.2526C10.9232 33.1638 13.4091 28.3757 11.7946 24.0806C9.587 18.2079 15.0182 12.2592 21.0326 14.0453C25.4228 15.3491 29.9677 12.4483 30.6987 7.92733C31.6981 1.7464 39.3675 -0.693061 43.6623 3.86294C46.7977 7.18892 52.1508 6.9825 55.0286 3.43138C58.9855 -1.45114 66.8368 0.33709 68.2884 6.4517C69.3443 10.8998 74.08 13.4055 78.3479 11.7669C84.1965 9.52146 90.0561 15.0397 88.2749 21.0459C86.9725 25.4375 89.8134 30.0178 94.336 30.7444C100.529 31.7394 102.847 39.4523 98.3143 43.7883C94.9981 46.9609 95.1653 52.3548 98.7129 55.2665Z" fill="#E1BBD2"/>
</svg>
