<svg width="90" height="91" viewBox="0 0 90 91" fill="none" xmlns="http://www.w3.org/2000/svg">
<path d="M45.2727 3.89395C48.1013 -0.286011 54.5091 0.606231 56.0883 5.39978C57.4261 9.4603 62.0406 11.4174 65.8864 9.54639C70.3967 7.35215 75.472 11.362 74.4581 16.2988C73.5977 20.4893 76.6048 24.5369 80.881 24.8521C85.8918 25.2217 88.2876 31.237 84.953 35.0294C82.1234 38.247 82.7003 43.2597 86.24 45.6925C90.4203 48.5654 89.5281 54.9785 84.7224 56.6002C80.6528 57.9736 78.7263 62.6338 80.5711 66.5022C82.7439 71.0591 78.7945 76.1848 73.8723 75.171C69.6733 74.3065 65.6767 77.3822 65.3599 81.647C64.9864 86.6739 59.0063 89.148 55.2693 85.804C52.0818 82.9515 47.1068 83.5731 44.7104 87.1144C41.8823 91.293 35.4757 90.4004 33.8969 85.6079C32.559 81.5476 27.944 79.5921 24.1 81.4664C19.5961 83.6623 14.5203 79.647 15.5308 74.7104C16.3879 70.522 13.3845 66.4684 9.1094 66.1533C4.0963 65.7835 1.69658 59.773 5.03258 55.9822C7.86328 52.7655 7.28388 47.7583 3.74574 45.325C-0.432141 42.4521 0.461015 36.0422 5.26505 34.4196C9.33317 33.0454 11.2569 28.3827 9.4146 24.5154C7.24172 19.9551 11.1904 14.821 16.1131 15.8347C20.3126 16.6995 24.3101 13.6242 24.6294 9.35929C25.0056 4.33545 30.9826 1.86355 34.7176 5.20487C37.9046 8.05567 42.877 7.43394 45.2727 3.89395Z" stroke="#63710F"/>
</svg>
