<svg width="103" height="103" viewBox="0 0 103 103" fill="none" xmlns="http://www.w3.org/2000/svg">
<path d="M98.927 51.2643C104.126 54.8336 103.017 62.8079 97.0406 64.8213C92.6909 66.2867 90.6212 71.2665 92.5993 75.4083C95.3023 81.068 90.3977 87.4496 84.2544 86.1849C79.7692 85.2615 75.4902 88.5408 75.1513 93.1075C74.6876 99.3553 67.2503 102.444 62.5793 98.2689C59.1704 95.2218 53.8527 95.8851 51.2884 99.6705C47.7645 104.873 39.7903 103.762 37.8214 97.7952C36.3889 93.4541 31.4549 91.3644 27.3448 93.3655C21.7152 96.1064 15.4077 91.1007 16.6638 84.9665C17.5823 80.4812 14.3624 76.155 9.79642 75.8181C3.53989 75.3565 0.563902 67.8767 4.7111 63.1694C7.74473 59.7262 7.11466 54.3719 3.33211 51.7735C-1.86437 48.2039 -0.753534 40.2333 5.22038 38.2189C9.56838 36.7527 11.6356 31.7695 9.65955 27.6283C6.95765 21.9659 11.8601 15.5744 18.0052 16.8395C22.4909 17.7629 26.7709 14.484 27.1125 9.91706C27.5795 3.6733 35.0121 0.58669 39.6809 4.75858C43.0893 7.80416 48.4051 7.14055 50.9687 3.35626C54.4933 -1.84685 62.4688 -0.736831 64.4381 5.23119C65.8707 9.57265 70.8034 11.664 74.9155 9.66633C80.5506 6.92881 86.8607 11.9255 85.5999 18.0621C84.678 22.549 87.9002 26.8695 92.4684 27.2066C98.7239 27.6681 101.693 35.1544 97.5481 39.8623C94.5153 43.307 95.1434 48.6668 98.927 51.2643Z" fill="#FFAD82"/>
</svg>
