<svg width="101" height="93" viewBox="0 0 101 93" fill="none" xmlns="http://www.w3.org/2000/svg">
<path d="M97.6769 53.3886C102.127 57.0542 100.069 64.3556 94.3599 65.1613C90.2315 65.744 87.655 70.029 89.159 73.9176C91.1454 79.0539 86.2204 84.1676 81.0131 82.3756L79.0852 81.7122C75.1081 80.3435 70.8343 82.7845 69.9924 86.9054C68.8668 92.4159 62.0125 94.39 58.1282 90.3226L56.3132 88.4219C53.596 85.5767 49.0684 85.5288 46.2917 88.316L44.8372 89.776C40.9702 93.6577 34.3441 91.7923 33.07 86.4633L32.5914 84.4612C31.6763 80.6339 27.7872 78.3127 23.9842 79.324L21.4596 79.9954C16.0228 81.4413 11.2013 76.1826 13.1126 70.8913C14.5415 66.9353 12.1675 62.6244 8.06032 61.7172L6.06915 61.2774C0.691264 60.0894 -0.842744 53.1567 3.53194 49.8108C6.84341 47.2781 6.88175 42.279 3.66458 39.6275C-0.783004 35.962 1.26914 28.6627 6.9758 27.8558C11.1065 27.2717 13.6826 22.9848 12.1792 19.0933C10.193 13.9522 15.1226 8.8355 20.3341 10.6289L22.2583 11.2911C26.2346 12.6594 30.5077 10.2207 31.352 6.1013C32.481 0.593075 39.333 -1.37861 43.2169 2.68714L45.0269 4.58185C47.7442 7.42637 52.2712 7.47387 55.0476 4.68698L56.5029 3.22614C60.37 -0.655562 66.996 1.20981 68.2701 6.53886L68.7501 8.54662C69.6646 12.3718 73.5501 14.693 77.3518 13.6853L79.8998 13.0099C85.3333 11.5697 90.1466 16.8277 88.233 22.1131C86.8015 26.0669 89.1735 30.3779 93.2795 31.2849L95.2663 31.7237C100.647 32.9124 102.184 39.8487 97.8074 43.1982C94.4944 45.734 94.4566 50.736 97.6769 53.3886Z" fill="#FFAD82"/>
</svg>
