<svg width="87" height="81" viewBox="0 0 87 81" fill="none" xmlns="http://www.w3.org/2000/svg">
<path d="M48.9684 2.95565C52.007 -0.0973625 57.2177 1.36949 58.2173 5.5594L58.6861 7.52665C59.5341 11.0816 63.1456 13.2389 66.6778 12.3006L69.0605 11.6677C73.3359 10.532 77.1239 14.7665 75.6076 18.9568C74.2745 22.6398 76.4567 26.7291 80.2957 27.5771L82.0684 27.9686C86.335 28.9108 87.5545 34.409 84.0866 37.0669C80.9456 39.4739 80.9175 44.2065 83.9596 46.7148C87.4915 49.6274 85.8559 55.4308 81.3221 56.0728C77.4208 56.6252 74.9771 60.6756 76.4016 64.3651C77.974 68.438 74.0689 72.49 69.9408 71.0693L68.2185 70.4769C64.5009 69.1974 60.506 71.5493 59.7216 75.3864C58.8289 79.7542 53.3846 81.3928 50.3307 78.1917L48.6309 76.4095C46.1075 73.7643 41.9 73.7198 39.321 76.3107L37.8962 77.7428C34.8576 80.796 29.6469 79.329 28.6474 75.1391L28.1794 73.1761C27.3308 69.6193 23.7164 67.4623 20.1831 68.4039L17.8109 69.0357C13.5205 70.1789 9.71353 66.0296 11.2216 61.8534L11.2855 61.6766C12.6174 57.9876 10.4034 53.9686 6.5737 53.1227L4.79157 52.7285C0.528166 51.7869 -0.689872 46.2919 2.77647 43.6372C5.91628 41.2329 5.94589 36.5035 2.90658 33.9963C-0.624732 31.0833 1.00735 25.2816 5.53887 24.6388C9.44218 24.0849 11.8847 20.0326 10.4609 16.3408C8.88895 12.2638 12.7986 8.2088 16.9304 9.63101L18.6499 10.2226C22.3661 11.5017 26.3606 9.15116 27.147 5.31623C28.0422 0.950636 33.4836 -0.686594 36.5364 2.51256L38.2332 4.29086C40.7568 6.93537 44.9647 6.9796 47.5433 4.38873L48.9684 2.95565Z" stroke="#515726"/>
</svg>
