<svg width="114" height="113" viewBox="0 0 114 113" fill="none" xmlns="http://www.w3.org/2000/svg">
<path d="M110.837 52.9291C113.787 54.4028 113.787 58.6122 110.837 60.0859L100.616 65.1917C98.4689 66.2643 97.7431 68.9729 99.0662 70.9752L105.389 80.544C107.211 83.3019 105.092 86.9545 101.793 86.7408L90.5058 86.0096C88.0975 85.8536 86.1005 87.8497 86.2555 90.2581L86.99 101.672C87.2031 104.983 83.5243 107.099 80.7692 105.25L71.4065 98.9666C69.3959 97.6172 66.6567 98.3497 65.5881 100.523L60.5822 110.701C59.1168 113.681 54.8688 113.681 53.4034 110.701L48.3982 100.524C47.3293 98.3506 44.5893 97.6184 42.5786 98.9688L33.2274 105.249C30.4734 107.099 26.7943 104.985 27.0053 101.674L27.7331 90.2555C27.8865 87.848 25.89 85.8535 23.4826 86.0094L12.1926 86.7408C8.89399 86.9545 6.77449 83.3019 8.59677 80.544L14.9201 70.9742C16.2429 68.9722 15.5177 66.2641 13.3713 65.1912L3.15751 60.0854C0.208902 58.6114 0.208906 54.4036 3.15751 52.9296L13.3727 47.8231C15.5186 46.7504 16.2441 44.0433 14.9222 42.0413L8.59255 32.4546C6.77156 29.6966 8.89116 26.0453 12.1892 26.259L23.4824 26.9906C25.8898 27.1465 27.8865 25.1519 27.7329 22.7444L27.0053 11.3358C26.7943 8.02584 30.4714 5.91169 33.2257 7.75946L42.5793 14.0345C44.59 15.3834 47.3286 14.6507 48.3971 12.478L53.4034 2.29856C54.8688 -0.681095 59.1168 -0.68109 60.5822 2.29857L65.5891 12.4795C66.6574 14.6517 69.3952 15.3846 71.4059 14.0367L80.7709 7.75866C83.5263 5.91157 87.2031 8.02792 86.99 11.3382L86.2557 22.7417C86.1006 25.1502 88.0976 27.1464 90.506 26.9904L101.796 26.259C105.094 26.0453 107.214 29.6966 105.393 32.4546L99.064 42.0402C97.742 44.0426 98.468 46.7503 100.615 47.8226L110.837 52.9291Z" fill="#E1BBD2"/>
</svg>
