<svg width="98" height="97" viewBox="0 0 98 97" fill="none" xmlns="http://www.w3.org/2000/svg">
<path d="M45.8528 2.5293C47.1346 -0.0792727 50.8533 -0.0793287 52.135 2.5293L55.7493 9.88672C56.9507 12.3327 60.0334 13.1584 62.2961 11.6396L69.0461 7.1084C71.4568 5.49039 74.6758 7.34194 74.4895 10.2393L73.9583 18.5098C73.784 21.2192 76.0302 23.4646 78.7395 23.2891L86.9055 22.7598C89.7905 22.5726 91.6455 25.7662 90.054 28.1797L85.4514 35.1582C83.9664 37.4101 84.783 40.4545 87.1956 41.6611L94.6243 45.376C97.2031 46.666 97.203 50.3466 94.6243 51.6367L87.1965 55.3516C84.7836 56.5584 83.9677 59.6026 85.4534 61.8545L90.05 68.8193C91.6427 71.2326 89.7878 74.427 86.9026 74.2402L78.7395 73.7109C76.0302 73.5353 73.7831 75.7808 73.9573 78.4902L74.4895 86.7686C74.6758 89.6666 71.4556 91.518 69.0452 89.8984L62.2971 85.3643C60.0344 83.8438 56.9502 84.6684 55.7483 87.1152L52.135 94.4707C50.8533 97.0793 47.1346 97.0793 45.8528 94.4707L42.2405 87.1162C41.0383 84.6689 37.9524 83.8447 35.6897 85.3662L28.9514 89.8975C26.5419 91.5178 23.3207 89.6683 23.5051 86.7705L24.0325 78.4873C24.2049 75.7788 21.9585 73.5353 19.2502 73.7109L11.0852 74.2402C8.19982 74.4272 6.34508 71.2327 7.93774 68.8193L12.5344 61.8535C14.02 59.6022 13.2051 56.5591 10.7932 55.3516L3.37036 51.6367C0.792726 50.3464 0.79289 46.6674 3.37036 45.377L10.7942 41.6611C13.2059 40.4541 14.021 37.4116 12.5364 35.1602L7.93384 28.1797C6.34227 25.7662 8.19731 22.5726 11.0823 22.7598L19.2502 23.2891C21.9586 23.4647 24.205 21.2212 24.0325 18.5127L23.5051 10.2373C23.3206 7.34031 26.5407 5.49077 28.9504 7.10938L35.6907 11.6367C37.9534 13.1566 41.0378 12.3323 42.2395 9.88574L45.8528 2.5293Z" stroke="#515726"/>
</svg>
